<svg xmlns="http://www.w3.org/2000/svg" xmlns:xlink="http://www.w3.org/1999/xlink" width="689pt" height="652" viewBox="0 0 689 488.5"><g id="graph0" class="graph" transform="scale(1 1) rotate(0) translate(4 484.5)"><title>componentsObject</title><polygon fill="#fff" stroke="transparent" points="-4 4 -4 -484.5 685 -484.5 685 4 -4 4"/><g id="node1" class="node"><title>openapiObject</title><g id="a_node1"><a target="_blank" xlink:href="https://spec.openapis.org/oas/v3.1.0#oasObject" xlink:title="Click to jump to the specification of this object"><polygon fill="#939598" stroke="transparent" points="8 -389 8 -410 124 -410 124 -389 8 -389"/><polygon fill="none" stroke="#000" points="8 -389 8 -410 124 -410 124 -389 8 -389"/><text x="11" y="-396.8" font-family="arial" font-size="14" font-weight="bold" text-anchor="start">OpenAPI Object</text><polygon fill="#6d6e71" stroke="transparent" points="8 -368 8 -389 124 -389 124 -368 8 -368"/><polygon fill="none" stroke="#000" points="8 -368 8 -389 124 -389 124 -368 8 -368"/><text x="37" y="-374.8" font-family="monospace" font-size="14" text-anchor="start">openapi</text><polygon fill="#6d6e71" stroke="transparent" points="8 -347 8 -368 124 -368 124 -347 8 -347"/><polygon fill="none" stroke="#000" points="8 -347 8 -368 124 -368 124 -347 8 -347"/><text x="49" y="-353.8" font-family="monospace" font-size="14" text-anchor="start">info</text><polygon fill="#6d6e71" stroke="transparent" points="8 -326 8 -347 124 -347 124 -326 8 -326"/><polygon fill="none" stroke="#000" points="8 -326 8 -347 124 -347 124 -326 8 -326"/><text x="45" y="-332.8" font-family="monospace" font-size="14" text-anchor="start">paths</text><polygon fill="#6d6e71" stroke="transparent" points="8 -305 8 -326 124 -326 124 -305 8 -305"/><polygon fill="none" stroke="#000" points="8 -305 8 -326 124 -326 124 -305 8 -305"/><text x="24.5" y="-311.8" font-family="monospace" font-size="14" text-anchor="start">components</text><polygon fill="#6d6e71" stroke="transparent" points="8 -284 8 -305 124 -305 124 -284 8 -284"/><polygon fill="none" stroke="#000" points="8 -284 8 -305 124 -305 124 -284 8 -284"/><text x="61.5" y="-290.8" font-family="monospace" font-size="14" text-anchor="start">…</text></a></g></g><g id="node2" class="node"><title>componentsObject</title><g id="a_node2"><a target="_blank" xlink:href="https://spec.openapis.org/oas/v3.1.0#componentsObject" xlink:title="Click to jump to the specification of this object"><polygon fill="#94d60a" stroke="transparent" points="176.5 -304 176.5 -325 321.5 -325 321.5 -304 176.5 -304"/><polygon fill="none" stroke="#000" points="176.5 -304 176.5 -325 321.5 -325 321.5 -304 176.5 -304"/><text x="179.5" y="-311.8" font-family="arial" font-size="14" font-weight="bold" text-anchor="start">Components Object</text><polygon fill="#6ca437" stroke="transparent" points="176.5 -283 176.5 -304 321.5 -304 321.5 -283 176.5 -283"/><polygon fill="none" stroke="#000" points="176.5 -283 176.5 -304 321.5 -304 321.5 -283 176.5 -283"/><text x="220" y="-289.8" font-family="monospace" font-size="14" text-anchor="start">schemas</text><polygon fill="#6ca437" stroke="transparent" points="176.5 -262 176.5 -283 321.5 -283 321.5 -262 176.5 -262"/><polygon fill="none" stroke="#000" points="176.5 -262 176.5 -283 321.5 -283 321.5 -262 176.5 -262"/><text x="211.5" y="-268.8" font-family="monospace" font-size="14" text-anchor="start">responses</text><polygon fill="#6ca437" stroke="transparent" points="176.5 -241 176.5 -262 321.5 -262 321.5 -241 176.5 -241"/><polygon fill="none" stroke="#000" points="176.5 -241 176.5 -262 321.5 -262 321.5 -241 176.5 -241"/><text x="207.5" y="-247.8" font-family="monospace" font-size="14" text-anchor="start">parameters</text><polygon fill="#6ca437" stroke="transparent" points="176.5 -220 176.5 -241 321.5 -241 321.5 -220 176.5 -220"/><polygon fill="none" stroke="#000" points="176.5 -220 176.5 -241 321.5 -241 321.5 -220 176.5 -220"/><text x="244.5" y="-226.8" font-family="monospace" font-size="14" text-anchor="start">…</text></a></g></g><g id="edge1" class="edge"><title>openapiObject:components-&gt;componentsObject:header</title><path fill="none" stroke="#000" d="M125,-315C143.59,-315 150.63,-315 165.25,-315"/><polygon fill="#000" stroke="#000" points="165.5 -318.5 175.5 -315 165.5 -311.5 165.5 -318.5"/></g><g id="node3" class="node"><title>schemasMap</title><g id="a_node3"><a target="_blank" xlink:href="https://spec.openapis.org/oas/v3.1.0#componentsObject" xlink:title="Click to jump to the specification of this object"><polygon fill="#94d60a" stroke="transparent" points="381.5 -455 381.5 -476 486.5 -476 486.5 -455 381.5 -455"/><polygon fill="none" stroke="#000" points="381.5 -455 381.5 -476 486.5 -476 486.5 -455 381.5 -455"/><text x="384.5" y="-462.8" font-family="arial" font-size="14" font-weight="bold" text-anchor="start">Schemas Map</text><polygon fill="#6ca437" stroke="transparent" points="381.5 -434 381.5 -455 486.5 -455 486.5 -434 381.5 -434"/><polygon fill="none" stroke="#000" points="381.5 -434 381.5 -455 486.5 -455 486.5 -434 381.5 -434"/><text x="405" y="-440.8" font-family="monospace" font-size="14" text-anchor="start">schema1</text><polygon fill="#6ca437" stroke="transparent" points="381.5 -413 381.5 -434 486.5 -434 486.5 -413 381.5 -413"/><polygon fill="none" stroke="#000" points="381.5 -413 381.5 -434 486.5 -434 486.5 -413 381.5 -413"/><text x="405" y="-419.8" font-family="monospace" font-size="14" text-anchor="start">schema2</text><polygon fill="#6ca437" stroke="transparent" points="381.5 -392 381.5 -413 486.5 -413 486.5 -392 381.5 -392"/><polygon fill="none" stroke="#000" points="381.5 -392 381.5 -413 486.5 -413 486.5 -392 381.5 -392"/><text x="405" y="-398.8" font-family="monospace" font-size="14" text-anchor="start">schema3</text><polygon fill="#6ca437" stroke="transparent" points="381.5 -371 381.5 -392 486.5 -392 486.5 -371 381.5 -371"/><polygon fill="none" stroke="#000" points="381.5 -371 381.5 -392 486.5 -392 486.5 -371 381.5 -371"/><text x="429.5" y="-377.8" font-family="monospace" font-size="14" text-anchor="start">…</text></a></g></g><g id="edge2" class="edge"><title>componentsObject:schemas-&gt;schemasMap:header</title><path fill="none" stroke="#000" d="M322.5,-294C399.39,-294 309.11,-450.25 370.33,-464.9"/><polygon fill="#000" stroke="#000" points="370.18 -468.41 380.5 -466 370.93 -461.45 370.18 -468.41"/></g><g id="node4" class="node"><title>responsesMap</title><g id="a_node4"><a target="_blank" xlink:href="https://spec.openapis.org/oas/v3.1.0#componentsObject" xlink:title="Click to jump to the specification of this object"><polygon fill="#94d60a" stroke="transparent" points="374.5 -261 374.5 -282 492.5 -282 492.5 -261 374.5 -261"/><polygon fill="none" stroke="#000" points="374.5 -261 374.5 -282 492.5 -282 492.5 -261 374.5 -261"/><text x="377.5" y="-268.8" font-family="arial" font-size="14" font-weight="bold" text-anchor="start">Responses Map</text><polygon fill="#6ca437" stroke="transparent" points="374.5 -240 374.5 -261 492.5 -261 492.5 -240 374.5 -240"/><polygon fill="none" stroke="#000" points="374.5 -240 374.5 -261 492.5 -261 492.5 -240 374.5 -240"/><text x="396" y="-246.8" font-family="monospace" font-size="14" text-anchor="start">response1</text><polygon fill="#6ca437" stroke="transparent" points="374.5 -219 374.5 -240 492.5 -240 492.5 -219 374.5 -219"/><polygon fill="none" stroke="#000" points="374.5 -219 374.5 -240 492.5 -240 492.5 -219 374.5 -219"/><text x="396" y="-225.8" font-family="monospace" font-size="14" text-anchor="start">response2</text><polygon fill="#6ca437" stroke="transparent" points="374.5 -198 374.5 -219 492.5 -219 492.5 -198 374.5 -198"/><polygon fill="none" stroke="#000" points="374.5 -198 374.5 -219 492.5 -219 492.5 -198 374.5 -198"/><text x="396" y="-204.8" font-family="monospace" font-size="14" text-anchor="start">response3</text><polygon fill="#6ca437" stroke="transparent" points="374.5 -177 374.5 -198 492.5 -198 492.5 -177 374.5 -177"/><polygon fill="none" stroke="#000" points="374.5 -177 374.5 -198 492.5 -198 492.5 -177 374.5 -177"/><text x="429" y="-183.8" font-family="monospace" font-size="14" text-anchor="start">…</text></a></g></g><g id="edge3" class="edge"><title>componentsObject:responses-&gt;responsesMap:header</title><path fill="none" stroke="#000" d="M322.5,-272C341.27,-272 348.38,-272 363.15,-272"/><polygon fill="#000" stroke="#000" points="363.5 -275.5 373.5 -272 363.5 -268.5 363.5 -275.5"/></g><g id="node5" class="node"><title>parametersMap</title><g id="a_node5"><a target="_blank" xlink:href="https://spec.openapis.org/oas/v3.1.0#componentsObject" xlink:title="Click to jump to the specification of this object"><polygon fill="#94d60a" stroke="transparent" points="373.5 -130 373.5 -151 494.5 -151 494.5 -130 373.5 -130"/><polygon fill="none" stroke="#000" points="373.5 -130 373.5 -151 494.5 -151 494.5 -130 373.5 -130"/><text x="376.5" y="-137.8" font-family="arial" font-size="14" font-weight="bold" text-anchor="start">Parameters Map</text><polygon fill="#6ca437" stroke="transparent" points="373.5 -109 373.5 -130 494.5 -130 494.5 -109 373.5 -109"/><polygon fill="none" stroke="#000" points="373.5 -109 373.5 -130 494.5 -130 494.5 -109 373.5 -109"/><text x="392.5" y="-115.8" font-family="monospace" font-size="14" text-anchor="start">parameter1</text><polygon fill="#6ca437" stroke="transparent" points="373.5 -88 373.5 -109 494.5 -109 494.5 -88 373.5 -88"/><polygon fill="none" stroke="#000" points="373.5 -88 373.5 -109 494.5 -109 494.5 -88 373.5 -88"/><text x="392.5" y="-94.8" font-family="monospace" font-size="14" text-anchor="start">parameter2</text><polygon fill="#6ca437" stroke="transparent" points="373.5 -67 373.5 -88 494.5 -88 494.5 -67 373.5 -67"/><polygon fill="none" stroke="#000" points="373.5 -67 373.5 -88 494.5 -88 494.5 -67 373.5 -67"/><text x="392.5" y="-73.8" font-family="monospace" font-size="14" text-anchor="start">parameter3</text><polygon fill="#6ca437" stroke="transparent" points="373.5 -46 373.5 -67 494.5 -67 494.5 -46 373.5 -46"/><polygon fill="none" stroke="#000" points="373.5 -46 373.5 -67 494.5 -67 494.5 -46 373.5 -46"/><text x="429.5" y="-52.8" font-family="monospace" font-size="14" text-anchor="start">…</text></a></g></g><g id="edge4" class="edge"><title>componentsObject:parameters-&gt;parametersMap:header</title><path fill="none" stroke="#000" d="M322.5,-251C372.22,-251 326.71,-156.72 362.29,-142.73"/><polygon fill="#000" stroke="#000" points="363.22 -146.12 372.5 -141 362.06 -139.22 363.22 -146.12"/></g><g id="node6" class="node"><title>schemaObject</title><g id="a_node6"><a target="_blank" xlink:href="https://spec.openapis.org/oas/v3.1.0#schemaObject" xlink:title="Click to jump to the specification of this object"><polygon fill="#939598" stroke="transparent" points="553.5 -434 553.5 -455 665.5 -455 665.5 -434 553.5 -434"/><polygon fill="none" stroke="#000" points="553.5 -434 553.5 -455 665.5 -455 665.5 -434 553.5 -434"/><text x="556.5" y="-441.8" font-family="arial" font-size="14" font-weight="bold" text-anchor="start">Schema Object</text><polygon fill="#6d6e71" stroke="transparent" points="553.5 -413 553.5 -434 665.5 -434 665.5 -413 553.5 -413"/><polygon fill="none" stroke="#000" points="553.5 -413 553.5 -434 665.5 -434 665.5 -413 553.5 -413"/><text x="588.5" y="-419.8" font-family="monospace" font-size="14" text-anchor="start">title</text><polygon fill="#6d6e71" stroke="transparent" points="553.5 -392 553.5 -413 665.5 -413 665.5 -392 553.5 -392"/><polygon fill="none" stroke="#000" points="553.5 -392 553.5 -413 665.5 -413 665.5 -392 553.5 -392"/><text x="564" y="-398.8" font-family="monospace" font-size="14" text-anchor="start">description</text><polygon fill="#6d6e71" stroke="transparent" points="553.5 -371 553.5 -392 665.5 -392 665.5 -371 553.5 -371"/><polygon fill="none" stroke="#000" points="553.5 -371 553.5 -392 665.5 -392 665.5 -371 553.5 -371"/><text x="592.5" y="-377.8" font-family="monospace" font-size="14" text-anchor="start">type</text><polygon fill="#6d6e71" stroke="transparent" points="553.5 -350 553.5 -371 665.5 -371 665.5 -350 553.5 -350"/><polygon fill="none" stroke="#000" points="553.5 -350 553.5 -371 665.5 -371 665.5 -350 553.5 -350"/><text x="588.5" y="-356.8" font-family="monospace" font-size="14" text-anchor="start">items</text><polygon fill="#6d6e71" stroke="transparent" points="553.5 -329 553.5 -350 665.5 -350 665.5 -329 553.5 -329"/><polygon fill="none" stroke="#000" points="553.5 -329 553.5 -350 665.5 -350 665.5 -329 553.5 -329"/><text x="568" y="-335.8" font-family="monospace" font-size="14" text-anchor="start">properties</text><polygon fill="#6d6e71" stroke="transparent" points="553.5 -308 553.5 -329 665.5 -329 665.5 -308 553.5 -308"/><polygon fill="none" stroke="#000" points="553.5 -308 553.5 -329 665.5 -329 665.5 -308 553.5 -308"/><text x="580.5" y="-314.8" font-family="monospace" font-size="14" text-anchor="start">example</text><polygon fill="#6d6e71" stroke="transparent" points="553.5 -287 553.5 -308 665.5 -308 665.5 -287 553.5 -287"/><polygon fill="none" stroke="#000" points="553.5 -287 553.5 -308 665.5 -308 665.5 -287 553.5 -287"/><text x="605" y="-293.8" font-family="monospace" font-size="14" text-anchor="start">…</text></a></g></g><g id="edge5" class="edge"><title>schemasMap:schema1-&gt;schemaObject:header</title><path fill="none" stroke="#000" d="M487.5,-445C512.66,-445 521.39,-445 542.32,-445"/><polygon fill="#000" stroke="#000" points="542.5 -448.5 552.5 -445 542.5 -441.5 542.5 -448.5"/></g><g id="edge6" class="edge"><title>schemasMap:schema2-&gt;schemaObject:header</title><path fill="none" stroke="#000" d="M487.5,-423C514.31,-423 520.64,-439.99 542.49,-444.11"/><polygon fill="#000" stroke="#000" points="542.23 -447.6 552.5 -445 542.85 -440.63 542.23 -447.6"/></g><g id="edge7" class="edge"><title>schemasMap:schema3-&gt;schemaObject:header</title><path fill="none" stroke="#000" d="M487.5,-402C518.35,-402 518.33,-436.11 542.43,-443.57"/><polygon fill="#000" stroke="#000" points="542.11 -447.06 552.5 -445 543.09 -440.13 542.11 -447.06"/></g><g id="node7" class="node"><title>responseObject</title><g id="a_node7"><a target="_blank" xlink:href="https://spec.openapis.org/oas/v3.1.0#responseObject" xlink:title="Click to jump to the specification of this object"><polygon fill="#939598" stroke="transparent" points="547.5 -240 547.5 -261 672.5 -261 672.5 -240 547.5 -240"/><polygon fill="none" stroke="#000" points="547.5 -240 547.5 -261 672.5 -261 672.5 -240 547.5 -240"/><text x="550.5" y="-247.8" font-family="arial" font-size="14" font-weight="bold" text-anchor="start">Response Object</text><polygon fill="#6d6e71" stroke="transparent" points="547.5 -219 547.5 -240 672.5 -240 672.5 -219 547.5 -219"/><polygon fill="none" stroke="#000" points="547.5 -219 547.5 -240 672.5 -240 672.5 -219 547.5 -219"/><text x="564.5" y="-225.8" font-family="monospace" font-size="14" text-anchor="start">description</text><polygon fill="#6d6e71" stroke="transparent" points="547.5 -198 547.5 -219 672.5 -219 672.5 -198 547.5 -198"/><polygon fill="none" stroke="#000" points="547.5 -198 547.5 -219 672.5 -219 672.5 -198 547.5 -198"/><text x="581" y="-204.8" font-family="monospace" font-size="14" text-anchor="start">content</text><polygon fill="#6d6e71" stroke="transparent" points="547.5 -177 547.5 -198 672.5 -198 672.5 -177 547.5 -177"/><polygon fill="none" stroke="#000" points="547.5 -177 547.5 -198 672.5 -198 672.5 -177 547.5 -177"/><text x="605.5" y="-183.8" font-family="monospace" font-size="14" text-anchor="start">…</text></a></g></g><g id="edge8" class="edge"><title>responsesMap:response1-&gt;responseObject:header</title><path fill="none" stroke="#000" d="M493.5,-251C513.19,-251 520.54,-251 536.18,-251"/><polygon fill="#000" stroke="#000" points="536.5 -254.5 546.5 -251 536.5 -247.5 536.5 -254.5"/></g><g id="edge9" class="edge"><title>responsesMap:response2-&gt;responseObject:header</title><path fill="none" stroke="#000" d="M493.5,-229C515.22,-229 519.89,-244.95 536.54,-249.69"/><polygon fill="#000" stroke="#000" points="536.13 -253.17 546.5 -251 537.04 -246.23 536.13 -253.17"/></g><g id="edge10" class="edge"><title>responsesMap:response3-&gt;responseObject:header</title><path fill="none" stroke="#000" d="M493.5,-208C519.92,-208 517.51,-240.63 536.5,-249.04"/><polygon fill="#000" stroke="#000" points="536.01 -252.51 546.5 -251 537.36 -245.64 536.01 -252.51"/></g><g id="node8" class="node"><title>parameterObject</title><g id="a_node8"><a target="_blank" xlink:href="https://spec.openapis.org/oas/v3.1.0#parameterObject" xlink:title="Click to jump to the specification of this object"><polygon fill="#939598" stroke="transparent" points="546.5 -109 546.5 -130 673.5 -130 673.5 -109 546.5 -109"/><polygon fill="none" stroke="#000" points="546.5 -109 546.5 -130 673.5 -130 673.5 -109 546.5 -109"/><text x="549.5" y="-116.8" font-family="arial" font-size="14" font-weight="bold" text-anchor="start">Parameter Object</text><polygon fill="#6d6e71" stroke="transparent" points="546.5 -88 546.5 -109 673.5 -109 673.5 -88 546.5 -88"/><polygon fill="none" stroke="#000" points="546.5 -88 546.5 -109 673.5 -109 673.5 -88 546.5 -88"/><text x="593" y="-94.8" font-family="monospace" font-size="14" text-anchor="start">name</text><polygon fill="#6d6e71" stroke="transparent" points="546.5 -67 546.5 -88 673.5 -88 673.5 -67 546.5 -67"/><polygon fill="none" stroke="#000" points="546.5 -67 546.5 -88 673.5 -88 673.5 -67 546.5 -67"/><text x="564.5" y="-73.8" font-family="monospace" font-size="14" text-anchor="start">description</text><polygon fill="#6d6e71" stroke="transparent" points="546.5 -46 546.5 -67 673.5 -67 673.5 -46 546.5 -46"/><polygon fill="none" stroke="#000" points="546.5 -46 546.5 -67 673.5 -67 673.5 -46 546.5 -46"/><text x="601.5" y="-52.8" font-family="monospace" font-size="14" text-anchor="start">in</text><polygon fill="#6d6e71" stroke="transparent" points="546.5 -25 546.5 -46 673.5 -46 673.5 -25 546.5 -25"/><polygon fill="none" stroke="#000" points="546.5 -25 546.5 -46 673.5 -46 673.5 -25 546.5 -25"/><text x="576.5" y="-31.8" font-family="monospace" font-size="14" text-anchor="start">required</text><polygon fill="#6d6e71" stroke="transparent" points="546.5 -4 546.5 -25 673.5 -25 673.5 -4 546.5 -4"/><polygon fill="none" stroke="#000" points="546.5 -4 546.5 -25 673.5 -25 673.5 -4 546.5 -4"/><text x="605.5" y="-10.8" font-family="monospace" font-size="14" text-anchor="start">…</text></a></g></g><g id="edge11" class="edge"><title>parametersMap:parameter1-&gt;parameterObject:header</title><path fill="none" stroke="#000" d="M495.5,-120C513.9,-120 520.88,-120 535.35,-120"/><polygon fill="#000" stroke="#000" points="535.5 -123.5 545.5 -120 535.5 -116.5 535.5 -123.5"/></g><g id="edge12" class="edge"><title>parametersMap:parameter2-&gt;parameterObject:header</title><path fill="none" stroke="#000" d="M495.5,-98C515.8,-98 520.13,-113.37 535.19,-118.42"/><polygon fill="#000" stroke="#000" points="535.08 -121.94 545.5 -120 536.15 -115.02 535.08 -121.94"/></g><g id="edge13" class="edge"><title>parametersMap:parameter3-&gt;parameterObject:header</title><path fill="none" stroke="#000" d="M495.5,-77C520.92,-77 517.81,-109.34 535.65,-117.93"/><polygon fill="#000" stroke="#000" points="534.99 -121.36 545.5 -120 536.44 -114.51 534.99 -121.36"/></g></g></svg>