<svg xmlns="http://www.w3.org/2000/svg" xmlns:xlink="http://www.w3.org/1999/xlink" width="892pt" height="313pt" viewBox="0 0 891.6 312.5"><g id="graph0" class="graph" transform="scale(1 1) rotate(0) translate(4 308.5)"><title>contentField</title><polygon fill="#fff" stroke="transparent" points="-4 4 -4 -308.5 887.6 -308.5 887.6 4 -4 4"/><g id="node1" class="node"><title>responseObject</title><g id="a_node1"><a target="_blank" xlink:href="https://spec.openapis.org/oas/v3.1.0#responseObject" xlink:title="Click to jump to the specification of this object"><polygon fill="#939598" stroke="transparent" points="22.5 -279.5 22.5 -300.5 147.5 -300.5 147.5 -279.5 22.5 -279.5"/><polygon fill="none" stroke="#000" points="22.5 -279.5 22.5 -300.5 147.5 -300.5 147.5 -279.5 22.5 -279.5"/><text x="25.5" y="-287.3" font-family="arial" font-size="14" font-weight="bold" text-anchor="start">Response Object</text><polygon fill="#6d6e71" stroke="transparent" points="22.5 -258.5 22.5 -279.5 147.5 -279.5 147.5 -258.5 22.5 -258.5"/><polygon fill="none" stroke="#000" points="22.5 -258.5 22.5 -279.5 147.5 -279.5 147.5 -258.5 22.5 -258.5"/><text x="39.5" y="-265.3" font-family="monospace" font-size="14" text-anchor="start">description</text><polygon fill="#6d6e71" stroke="transparent" points="22.5 -237.5 22.5 -258.5 147.5 -258.5 147.5 -237.5 22.5 -237.5"/><polygon fill="none" stroke="#000" points="22.5 -237.5 22.5 -258.5 147.5 -258.5 147.5 -237.5 22.5 -237.5"/><text x="56" y="-244.3" font-family="monospace" font-size="14" text-anchor="start">content</text><polygon fill="#6d6e71" stroke="transparent" points="22.5 -216.5 22.5 -237.5 147.5 -237.5 147.5 -216.5 22.5 -216.5"/><polygon fill="none" stroke="#000" points="22.5 -216.5 22.5 -237.5 147.5 -237.5 147.5 -216.5 22.5 -216.5"/><text x="80.5" y="-223.3" font-family="monospace" font-size="14" text-anchor="start">…</text></a></g></g><g id="node3" class="node"><title>mediaMap</title><g id="a_node3"><a target="_blank" xlink:href="https://spec.openapis.org/oas/v3.1.0#responseObject" xlink:title="Click to jump to the specification of this object"><polygon fill="#94d60a" stroke="transparent" points="213 -236.5 213 -257.5 319 -257.5 319 -236.5 213 -236.5"/><polygon fill="none" stroke="#000" points="213 -236.5 213 -257.5 319 -257.5 319 -236.5 213 -236.5"/><text x="228" y="-244.3" font-family="arial" font-size="14" font-weight="bold" text-anchor="start">Media Map</text><polygon fill="#6ca437" stroke="transparent" points="213 -215.5 213 -236.5 319 -236.5 319 -215.5 213 -215.5"/><polygon fill="none" stroke="#000" points="213 -215.5 213 -236.5 319 -236.5 319 -215.5 213 -215.5"/><text x="216" y="-222.3" font-family="monospace" font-size="14" text-anchor="start">media-type-1</text><polygon fill="#6ca437" stroke="transparent" points="213 -194.5 213 -215.5 319 -215.5 319 -194.5 213 -194.5"/><polygon fill="none" stroke="#000" points="213 -194.5 213 -215.5 319 -215.5 319 -194.5 213 -194.5"/><text x="216" y="-201.3" font-family="monospace" font-size="14" text-anchor="start">media-type-2</text><polygon fill="#6ca437" stroke="transparent" points="213 -173.5 213 -194.5 319 -194.5 319 -173.5 213 -173.5"/><polygon fill="none" stroke="#000" points="213 -173.5 213 -194.5 319 -194.5 319 -173.5 213 -173.5"/><text x="216" y="-180.3" font-family="monospace" font-size="14" text-anchor="start">media-type-3</text><polygon fill="#6ca437" stroke="transparent" points="213 -152.5 213 -173.5 319 -173.5 319 -152.5 213 -152.5"/><polygon fill="none" stroke="#000" points="213 -152.5 213 -173.5 319 -173.5 319 -152.5 213 -152.5"/><text x="261.5" y="-159.3" font-family="monospace" font-size="14" text-anchor="start">…</text></a></g></g><g id="edge1" class="edge"><title>responseObject:content-&gt;mediaMap:header</title><path fill="none" stroke="#000" d="M148.5,-247.5C172.97,-247.5 181.53,-247.5 201.78,-247.5"/><polygon fill="#000" stroke="#000" points="202 -251 212 -247.5 202 -244 202 -251"/></g><g id="node2" class="node"><title>requestBodyObject</title><g id="a_node2"><a target="_blank" xlink:href="https://spec.openapis.org/oas/v3.1.0#requestBodyObject" xlink:title="Click to jump to the specification of this object"><polygon fill="#939598" stroke="transparent" points="8.5 -169.5 8.5 -190.5 161.5 -190.5 161.5 -169.5 8.5 -169.5"/><polygon fill="none" stroke="#000" points="8.5 -169.5 8.5 -190.5 161.5 -190.5 161.5 -169.5 8.5 -169.5"/><text x="11.5" y="-177.3" font-family="arial" font-size="14" font-weight="bold" text-anchor="start">Request Body Object</text><polygon fill="#6d6e71" stroke="transparent" points="8.5 -148.5 8.5 -169.5 161.5 -169.5 161.5 -148.5 8.5 -148.5"/><polygon fill="none" stroke="#000" points="8.5 -148.5 8.5 -169.5 161.5 -169.5 161.5 -148.5 8.5 -148.5"/><text x="39.5" y="-155.3" font-family="monospace" font-size="14" text-anchor="start">description</text><polygon fill="#6d6e71" stroke="transparent" points="8.5 -127.5 8.5 -148.5 161.5 -148.5 161.5 -127.5 8.5 -127.5"/><polygon fill="none" stroke="#000" points="8.5 -127.5 8.5 -148.5 161.5 -148.5 161.5 -127.5 8.5 -127.5"/><text x="56" y="-134.3" font-family="monospace" font-size="14" text-anchor="start">content</text><polygon fill="#6d6e71" stroke="transparent" points="8.5 -106.5 8.5 -127.5 161.5 -127.5 161.5 -106.5 8.5 -106.5"/><polygon fill="none" stroke="#000" points="8.5 -106.5 8.5 -127.5 161.5 -127.5 161.5 -106.5 8.5 -106.5"/><text x="80.5" y="-113.3" font-family="monospace" font-size="14" text-anchor="start">…</text></a></g></g><g id="edge2" class="edge"><title>requestBodyObject:content-&gt;mediaMap:header</title><path fill="none" stroke="#000" d="M162.5,-137.5C212.13,-137.5 166.34,-231.78 201.81,-245.77"/><polygon fill="#000" stroke="#000" points="201.56 -249.28 212 -247.5 202.73 -242.38 201.56 -249.28"/></g><g id="node4" class="node"><title>mediaTypeObject</title><g id="a_node4"><a target="_blank" xlink:href="https://spec.openapis.org/oas/v3.1.0#mediaTypeObject" xlink:title="Click to jump to the specification of this object"><polygon fill="#94d60a" stroke="transparent" points="371 -215.5 371 -236.5 507 -236.5 507 -215.5 371 -215.5"/><polygon fill="none" stroke="#000" points="371 -215.5 371 -236.5 507 -236.5 507 -215.5 371 -215.5"/><text x="374" y="-223.3" font-family="arial" font-size="14" font-weight="bold" text-anchor="start">Media Type Object</text><polygon fill="#6ca437" stroke="transparent" points="371 -194.5 371 -215.5 507 -215.5 507 -194.5 371 -194.5"/><polygon fill="none" stroke="#000" points="371 -194.5 371 -215.5 507 -215.5 507 -194.5 371 -194.5"/><text x="414" y="-201.3" font-family="monospace" font-size="14" text-anchor="start">schema</text><polygon fill="#6ca437" stroke="transparent" points="371 -173.5 371 -194.5 507 -194.5 507 -173.5 371 -173.5"/><polygon fill="none" stroke="#000" points="371 -173.5 371 -194.5 507 -194.5 507 -173.5 371 -173.5"/><text x="434.5" y="-180.3" font-family="monospace" font-size="14" text-anchor="start">…</text></a></g></g><g id="edge3" class="edge"><title>mediaMap:media1-&gt;mediaTypeObject:header</title><path fill="none" stroke="#000" d="M320,-226.5C338.4,-226.5 345.38,-226.5 359.85,-226.5"/><polygon fill="#000" stroke="#000" points="360 -230 370 -226.5 360 -223 360 -230"/></g><g id="edge4" class="edge"><title>mediaMap:media2-&gt;mediaTypeObject:header</title><path fill="none" stroke="#000" d="M320,-204.5C340.3,-204.5 344.63,-219.87 359.69,-224.92"/><polygon fill="#000" stroke="#000" points="359.58 -228.44 370 -226.5 360.65 -221.52 359.58 -228.44"/></g><g id="edge5" class="edge"><title>mediaMap:media3-&gt;mediaTypeObject:header</title><path fill="none" stroke="#000" d="M320,-183.5C345.42,-183.5 342.31,-215.84 360.15,-224.43"/><polygon fill="#000" stroke="#000" points="359.49 -227.86 370 -226.5 360.94 -221.01 359.49 -227.86"/></g><g id="node5" class="node"><title>schemaObject</title><g id="a_node5"><a target="_blank" xlink:href="https://spec.openapis.org/oas/v3.1.0#schemaObject" xlink:title="Click to jump to the specification of this object"><polygon fill="#94d60a" stroke="transparent" points="559 -193.5 559 -214.5 671 -214.5 671 -193.5 559 -193.5"/><polygon fill="none" stroke="#000" points="559 -193.5 559 -214.5 671 -214.5 671 -193.5 559 -193.5"/><text x="562" y="-201.3" font-family="arial" font-size="14" font-weight="bold" text-anchor="start">Schema Object</text><polygon fill="#6ca437" stroke="transparent" points="559 -172.5 559 -193.5 671 -193.5 671 -172.5 559 -172.5"/><polygon fill="none" stroke="#000" points="559 -172.5 559 -193.5 671 -193.5 671 -172.5 559 -172.5"/><text x="594" y="-179.3" font-family="monospace" font-size="14" text-anchor="start">title</text><polygon fill="#6ca437" stroke="transparent" points="559 -151.5 559 -172.5 671 -172.5 671 -151.5 559 -151.5"/><polygon fill="none" stroke="#000" points="559 -151.5 559 -172.5 671 -172.5 671 -151.5 559 -151.5"/><text x="569.5" y="-158.3" font-family="monospace" font-size="14" text-anchor="start">description</text><polygon fill="#6ca437" stroke="transparent" points="559 -130.5 559 -151.5 671 -151.5 671 -130.5 559 -130.5"/><polygon fill="none" stroke="#000" points="559 -130.5 559 -151.5 671 -151.5 671 -130.5 559 -130.5"/><text x="598" y="-137.3" font-family="monospace" font-size="14" text-anchor="start">type</text><polygon fill="#6ca437" stroke="transparent" points="559 -109.5 559 -130.5 671 -130.5 671 -109.5 559 -109.5"/><polygon fill="none" stroke="#000" points="559 -109.5 559 -130.5 671 -130.5 671 -109.5 559 -109.5"/><text x="594" y="-116.3" font-family="monospace" font-size="14" text-anchor="start">items</text><polygon fill="#6ca437" stroke="transparent" points="559 -88.5 559 -109.5 671 -109.5 671 -88.5 559 -88.5"/><polygon fill="none" stroke="#000" points="559 -88.5 559 -109.5 671 -109.5 671 -88.5 559 -88.5"/><text x="573.5" y="-95.3" font-family="monospace" font-size="14" text-anchor="start">properties</text><polygon fill="#6ca437" stroke="transparent" points="559 -67.5 559 -88.5 671 -88.5 671 -67.5 559 -67.5"/><polygon fill="none" stroke="#000" points="559 -67.5 559 -88.5 671 -88.5 671 -67.5 559 -67.5"/><text x="586" y="-74.3" font-family="monospace" font-size="14" text-anchor="start">example</text><polygon fill="#6ca437" stroke="transparent" points="559 -46.5 559 -67.5 671 -67.5 671 -46.5 559 -46.5"/><polygon fill="none" stroke="#000" points="559 -46.5 559 -67.5 671 -67.5 671 -46.5 559 -46.5"/><text x="610.5" y="-53.3" font-family="monospace" font-size="14" text-anchor="start">…</text></a></g></g><g id="edge6" class="edge"><title>mediaTypeObject:schema-&gt;schemaObject:header</title><path fill="none" stroke="#000" d="M508,-204.5C526.4,-204.5 533.38,-204.5 547.85,-204.5"/><polygon fill="#000" stroke="#000" points="548 -208 558 -204.5 548 -201 548 -208"/></g><g id="edge8" class="edge"><title>schemaObject:e-&gt;schemaObject:n</title><path fill="none" stroke="#000" d="M671,-119.5C712,-154.83 712,-236.5 643,-236.5 580.2,-236.5 574.56,-226.56 604.96,-217.23"/><polygon fill="#000" stroke="#000" points="606.27 -220.5 615 -214.5 604.43 -213.75 606.27 -220.5"/></g><g id="node6" class="node"><title>propertiesMap</title><g id="a_node6"><a target="_blank" xlink:href="https://spec.openapis.org/oas/v3.1.0#schemaObject" xlink:title="Click to jump to the specification of this object"><polygon fill="#94d60a" stroke="transparent" points="723.5 -87.5 723.5 -108.5 836.5 -108.5 836.5 -87.5 723.5 -87.5"/><polygon fill="none" stroke="#000" points="723.5 -87.5 723.5 -108.5 836.5 -108.5 836.5 -87.5 723.5 -87.5"/><text x="726.5" y="-95.3" font-family="arial" font-size="14" font-weight="bold" text-anchor="start">Properties Map</text><polygon fill="#6ca437" stroke="transparent" points="723.5 -66.5 723.5 -87.5 836.5 -87.5 836.5 -66.5 723.5 -66.5"/><polygon fill="none" stroke="#000" points="723.5 -66.5 723.5 -87.5 836.5 -87.5 836.5 -66.5 723.5 -66.5"/><text x="738.5" y="-73.3" font-family="monospace" font-size="14" text-anchor="start">property-1</text><polygon fill="#6ca437" stroke="transparent" points="723.5 -45.5 723.5 -66.5 836.5 -66.5 836.5 -45.5 723.5 -45.5"/><polygon fill="none" stroke="#000" points="723.5 -45.5 723.5 -66.5 836.5 -66.5 836.5 -45.5 723.5 -45.5"/><text x="738.5" y="-52.3" font-family="monospace" font-size="14" text-anchor="start">property-2</text><polygon fill="#6ca437" stroke="transparent" points="723.5 -24.5 723.5 -45.5 836.5 -45.5 836.5 -24.5 723.5 -24.5"/><polygon fill="none" stroke="#000" points="723.5 -24.5 723.5 -45.5 836.5 -45.5 836.5 -24.5 723.5 -24.5"/><text x="738.5" y="-31.3" font-family="monospace" font-size="14" text-anchor="start">property-3</text><polygon fill="#6ca437" stroke="transparent" points="723.5 -3.5 723.5 -24.5 836.5 -24.5 836.5 -3.5 723.5 -3.5"/><polygon fill="none" stroke="#000" points="723.5 -3.5 723.5 -24.5 836.5 -24.5 836.5 -3.5 723.5 -3.5"/><text x="775.5" y="-10.3" font-family="monospace" font-size="14" text-anchor="start">…</text></a></g></g><g id="edge7" class="edge"><title>schemaObject:properties-&gt;propertiesMap:header</title><path fill="none" stroke="#000" d="M672,-98.5C690.59,-98.5 697.63,-98.5 712.25,-98.5"/><polygon fill="#000" stroke="#000" points="712.5 -102 722.5 -98.5 712.5 -95 712.5 -102"/></g><g id="node7" class="node"><title>mergerNode</title><g id="a_node7"><a xlink:title="Click to jump to the specification of this object"><ellipse cx="881.8" cy="-79.5" fill="#000" stroke="#000" rx="1.8" ry="1.8"/></a></g></g><g id="edge9" class="edge"><title>propertiesMap:e-&gt;mergerNode:s</title><path fill="none" stroke="#000" d="M837.5,-77.5C857.19,-77.5 881.8,-56.81 881.8,-76.5"/></g><g id="edge10" class="edge"><title>propertiesMap:e-&gt;mergerNode:s</title><path fill="none" stroke="#000" d="M837.5,-55.5C859.29,-55.5 881.8,-54.71 881.8,-76.5"/></g><g id="edge11" class="edge"><title>propertiesMap:e-&gt;mergerNode:s</title><path fill="none" stroke="#000" d="M837.5,-34.5C864.63,-34.5 881.8,-49.37 881.8,-76.5"/></g><g id="edge12" class="edge"><title>mergerNode:n-&gt;schemaObject:n</title><path fill="none" stroke="#000" d="M881.8,-82.5C881.8,-211.37 629.39,-340.72 615.59,-225.78"/><polygon fill="#000" stroke="#000" points="619.07 -225.28 615 -215.5 612.08 -225.68 619.07 -225.28"/></g></g></svg>