<svg xmlns="http://www.w3.org/2000/svg" xmlns:xlink="http://www.w3.org/1999/xlink" width="274pt" height="192" viewBox="0 0 274 143.5"><g id="graph0" class="graph" transform="scale(1 1) rotate(0) translate(4 139.5)"><title>openapiObject</title><polygon fill="#fff" stroke="transparent" points="-4 4 -4 -139.5 270 -139.5 270 4 -4 4"/><g id="node1" class="node"><title>openapiObject</title><g id="a_node1"><a target="_blank" xlink:href="https://spec.openapis.org/oas/v3.1.0#oasObject" xlink:title="Click to jump to the specification of this object"><polygon fill="#94d60a" stroke="transparent" points="8 -110 8 -131 124 -131 124 -110 8 -110"/><polygon fill="none" stroke="#000" points="8 -110 8 -131 124 -131 124 -110 8 -110"/><text x="11" y="-117.8" font-family="arial" font-size="14" font-weight="bold" text-anchor="start">OpenAPI Object</text><polygon fill="#6ca437" stroke="transparent" points="8 -89 8 -110 124 -110 124 -89 8 -89"/><polygon fill="none" stroke="#000" points="8 -89 8 -110 124 -110 124 -89 8 -89"/><text x="37" y="-95.8" font-family="monospace" font-size="14" text-anchor="start">openapi</text><polygon fill="#6ca437" stroke="transparent" points="8 -68 8 -89 124 -89 124 -68 8 -68"/><polygon fill="none" stroke="#000" points="8 -68 8 -89 124 -89 124 -68 8 -68"/><text x="49" y="-74.8" font-family="monospace" font-size="14" text-anchor="start">info</text><polygon fill="#6ca437" stroke="transparent" points="8 -47 8 -68 124 -68 124 -47 8 -47"/><polygon fill="none" stroke="#000" points="8 -47 8 -68 124 -68 124 -47 8 -47"/><text x="45" y="-53.8" font-family="monospace" font-size="14" text-anchor="start">paths</text><polygon fill="#6ca437" stroke="transparent" points="8 -26 8 -47 124 -47 124 -26 8 -26"/><polygon fill="none" stroke="#000" points="8 -26 8 -47 124 -47 124 -26 8 -26"/><text x="61.5" y="-32.8" font-family="monospace" font-size="14" text-anchor="start">…</text></a></g></g><g id="node2" class="node"><title>infoObject</title><g id="a_node2"><a target="_blank" xlink:href="https://spec.openapis.org/oas/v3.1.0#infoObject" xlink:title="Click to jump to the specification of this object"><polygon fill="#94d60a" stroke="transparent" points="176 -67 176 -88 258 -88 258 -67 176 -67"/><polygon fill="none" stroke="#000" points="176 -67 176 -88 258 -88 258 -67 176 -67"/><text x="179" y="-74.8" font-family="arial" font-size="14" font-weight="bold" text-anchor="start">Info Object</text><polygon fill="#6ca437" stroke="transparent" points="176 -46 176 -67 258 -67 258 -46 176 -46"/><polygon fill="none" stroke="#000" points="176 -46 176 -67 258 -67 258 -46 176 -46"/><text x="196" y="-52.8" font-family="monospace" font-size="14" text-anchor="start">title</text><polygon fill="#6ca437" stroke="transparent" points="176 -25 176 -46 258 -46 258 -25 176 -25"/><polygon fill="none" stroke="#000" points="176 -25 176 -46 258 -46 258 -25 176 -25"/><text x="188" y="-31.8" font-family="monospace" font-size="14" text-anchor="start">version</text><polygon fill="#6ca437" stroke="transparent" points="176 -4 176 -25 258 -25 258 -4 176 -4"/><polygon fill="none" stroke="#000" points="176 -4 176 -25 258 -25 258 -4 176 -4"/><text x="212.5" y="-10.8" font-family="monospace" font-size="14" text-anchor="start">…</text></a></g></g><g id="edge1" class="edge"><title>openapiObject:info-&gt;infoObject:header</title><path fill="none" stroke="#000" d="M125,-78C143.4,-78 150.38,-78 164.85,-78"/><polygon fill="#000" stroke="#000" points="165 -81.5 175 -78 165 -74.5 165 -81.5"/></g></g></svg>