<svg xmlns="http://www.w3.org/2000/svg" xmlns:xlink="http://www.w3.org/1999/xlink" width="728pt" height="482pt" viewBox="0 0 728 482"><g id="graph0" class="graph" transform="scale(1 1) rotate(0) translate(4 478)"><title>serverObject</title><polygon fill="#fff" stroke="transparent" points="-4 4 -4 -478 724 -478 724 4 -4 4"/><g id="clust2" class="cluster"><title>clusterOwnObjects</title><g id="a_clust2"><a xlink:title="serverObject"><polygon fill="#fff" stroke="transparent" points="183 -8 183 -223 712 -223 712 -8 183 -8"/></a></g></g><g id="clust1" class="cluster"><title>clusterOtherObjects</title><g id="a_clust1"><a xlink:title="serverObject"><polygon fill="#fff" stroke="transparent" points="8 -231 8 -466 692.5 -466 692.5 -231 8 -231"/></a></g></g><g id="node1" class="node"><title>openapiObject</title><g id="a_node1"><a target="_blank" xlink:href="https://spec.openapis.org/oas/v3.1.0#oasObject" xlink:title="Click to jump to the specification of this object"><polygon fill="#939598" stroke="transparent" points="24 -348 24 -369 140 -369 140 -348 24 -348"/><polygon fill="none" stroke="#000" points="24 -348 24 -369 140 -369 140 -348 24 -348"/><text x="27" y="-355.8" font-family="arial" font-size="14" font-weight="bold" text-anchor="start">OpenAPI Object</text><polygon fill="#6d6e71" stroke="transparent" points="24 -327 24 -348 140 -348 140 -327 24 -327"/><polygon fill="none" stroke="#000" points="24 -327 24 -348 140 -348 140 -327 24 -327"/><text x="53" y="-333.8" font-family="monospace" font-size="14" text-anchor="start">openapi</text><polygon fill="#6d6e71" stroke="transparent" points="24 -306 24 -327 140 -327 140 -306 24 -306"/><polygon fill="none" stroke="#000" points="24 -306 24 -327 140 -327 140 -306 24 -306"/><text x="65" y="-312.8" font-family="monospace" font-size="14" text-anchor="start">info</text><polygon fill="#6d6e71" stroke="transparent" points="24 -285 24 -306 140 -306 140 -285 24 -285"/><polygon fill="none" stroke="#000" points="24 -285 24 -306 140 -306 140 -285 24 -285"/><text x="61" y="-291.8" font-family="monospace" font-size="14" text-anchor="start">paths</text><polygon fill="#6d6e71" stroke="transparent" points="24 -264 24 -285 140 -285 140 -264 24 -264"/><polygon fill="none" stroke="#000" points="24 -264 24 -285 140 -285 140 -264 24 -264"/><text x="53" y="-270.8" font-family="monospace" font-size="14" text-anchor="start">servers</text><polygon fill="#6d6e71" stroke="transparent" points="24 -243 24 -264 140 -264 140 -243 24 -243"/><polygon fill="none" stroke="#000" points="24 -243 24 -264 140 -264 140 -243 24 -243"/><text x="77.5" y="-249.8" font-family="monospace" font-size="14" text-anchor="start">…</text></a></g></g><g id="node2" class="node"><title>pathsObject</title><g id="a_node2"><a target="_blank" xlink:href="https://spec.openapis.org/oas/v3.1.0#pathsObject" xlink:title="Click to jump to the specification of this object"><polygon fill="#939598" stroke="transparent" points="203 -432 203 -453 298 -453 298 -432 203 -432"/><polygon fill="none" stroke="#000" points="203 -432 203 -453 298 -453 298 -432 203 -432"/><text x="206" y="-439.8" font-family="arial" font-size="14" font-weight="bold" text-anchor="start">Paths Object</text><polygon fill="#6d6e71" stroke="transparent" points="203 -411 203 -432 298 -432 298 -411 203 -411"/><polygon fill="none" stroke="#000" points="203 -411 203 -432 298 -432 298 -411 203 -411"/><text x="209" y="-417.8" font-family="monospace" font-size="14" text-anchor="start">/endpoint1</text><polygon fill="#6d6e71" stroke="transparent" points="203 -390 203 -411 298 -411 298 -390 203 -390"/><polygon fill="none" stroke="#000" points="203 -390 203 -411 298 -411 298 -390 203 -390"/><text x="209" y="-396.8" font-family="monospace" font-size="14" text-anchor="start">/endpoint2</text><polygon fill="#6d6e71" stroke="transparent" points="203 -369 203 -390 298 -390 298 -369 203 -369"/><polygon fill="none" stroke="#000" points="203 -369 203 -390 298 -390 298 -369 203 -369"/><text x="209" y="-375.8" font-family="monospace" font-size="14" text-anchor="start">/endpoint3</text><polygon fill="#6d6e71" stroke="transparent" points="203 -348 203 -369 298 -369 298 -348 203 -348"/><polygon fill="none" stroke="#000" points="203 -348 203 -369 298 -369 298 -348 203 -348"/><text x="246" y="-354.8" font-family="monospace" font-size="14" text-anchor="start">…</text></a></g></g><g id="edge2" class="edge"><title>openapiObject:paths-&gt;pathsObject:header</title><path fill="none" stroke="#000" d="M141,-295C208.39,-295 139,-427.8 191.97,-441.81"/><polygon fill="#000" stroke="#000" points="191.66 -445.3 202 -443 192.48 -438.34 191.66 -445.3"/></g><g id="node5" class="node"><title>serverObject</title><g id="a_node5"><a target="_blank" xlink:href="https://spec.openapis.org/oas/v3.1.0#serverObject" xlink:title="Click to jump to the specification of this object"><polygon fill="#94d60a" stroke="transparent" points="199 -189 199 -210 301 -210 301 -189 199 -189"/><polygon fill="none" stroke="#000" points="199 -189 199 -210 301 -210 301 -189 199 -189"/><text x="202" y="-196.8" font-family="arial" font-size="14" font-weight="bold" text-anchor="start">Server Object</text><polygon fill="#6ca437" stroke="transparent" points="199 -168 199 -189 301 -189 301 -168 199 -168"/><polygon fill="none" stroke="#000" points="199 -168 199 -189 301 -189 301 -168 199 -168"/><text x="237.5" y="-174.8" font-family="monospace" font-size="14" text-anchor="start">url</text><polygon fill="#6ca437" stroke="transparent" points="199 -147 199 -168 301 -168 301 -147 199 -147"/><polygon fill="none" stroke="#000" points="199 -147 199 -168 301 -168 301 -147 199 -147"/><text x="204.5" y="-153.8" font-family="monospace" font-size="14" text-anchor="start">description</text><polygon fill="#6ca437" stroke="transparent" points="199 -126 199 -147 301 -147 301 -126 199 -126"/><polygon fill="none" stroke="#000" points="199 -126 199 -147 301 -147 301 -126 199 -126"/><text x="212.5" y="-132.8" font-family="monospace" font-size="14" text-anchor="start">variables</text><polygon fill="#6ca437" stroke="transparent" points="199 -105 199 -126 301 -126 301 -105 199 -105"/><polygon fill="none" stroke="#000" points="199 -105 199 -126 301 -126 301 -105 199 -105"/><text x="245.5" y="-111.8" font-family="monospace" font-size="14" text-anchor="start">…</text></a></g></g><g id="edge1" class="edge"><title>openapiObject:servers-&gt;serverObject:n</title><path fill="none" stroke="#000" d="M141,-274C169.01,-274 158.94,-241.35 183,-227 205.39,-213.64 238.23,-233.63 247.49,-220.96"/><polygon fill="#000" stroke="#000" points="250.95 -221.55 250 -211 244.16 -219.84 250.95 -221.55"/><text x="169.5" y="-251.8" font-family="Times New Roman,serif" font-size="14" text-anchor="middle">*</text></g><g id="node3" class="node"><title>pathItemObject</title><g id="a_node3"><a target="_blank" xlink:href="https://spec.openapis.org/oas/v3.1.0#pathItemObject" xlink:title="Click to jump to the specification of this object"><polygon fill="#939598" stroke="transparent" points="360 -411 360 -432 480 -432 480 -411 360 -411"/><polygon fill="none" stroke="#000" points="360 -411 360 -432 480 -432 480 -411 360 -411"/><text x="363" y="-418.8" font-family="arial" font-size="14" font-weight="bold" text-anchor="start">Path Item Object</text><polygon fill="#6d6e71" stroke="transparent" points="360 -390 360 -411 480 -411 480 -390 360 -390"/><polygon fill="none" stroke="#000" points="360 -390 360 -411 480 -411 480 -390 360 -390"/><text x="407.5" y="-396.8" font-family="monospace" font-size="14" text-anchor="start">get</text><polygon fill="#6d6e71" stroke="transparent" points="360 -369 360 -390 480 -390 480 -369 360 -369"/><polygon fill="none" stroke="#000" points="360 -369 360 -390 480 -390 480 -369 360 -369"/><text x="407.5" y="-375.8" font-family="monospace" font-size="14" text-anchor="start">put</text><polygon fill="#6d6e71" stroke="transparent" points="360 -348 360 -369 480 -369 480 -348 360 -348"/><polygon fill="none" stroke="#000" points="360 -348 360 -369 480 -369 480 -348 360 -348"/><text x="403" y="-354.8" font-family="monospace" font-size="14" text-anchor="start">post</text><polygon fill="#6d6e71" stroke="transparent" points="360 -327 360 -348 480 -348 480 -327 360 -327"/><polygon fill="none" stroke="#000" points="360 -327 360 -348 480 -348 480 -327 360 -327"/><text x="395" y="-333.8" font-family="monospace" font-size="14" text-anchor="start">delete</text><polygon fill="#6d6e71" stroke="transparent" points="360 -306 360 -327 480 -327 480 -306 360 -306"/><polygon fill="none" stroke="#000" points="360 -306 360 -327 480 -327 480 -306 360 -306"/><text x="391" y="-312.8" font-family="monospace" font-size="14" text-anchor="start">servers</text><polygon fill="#6d6e71" stroke="transparent" points="360 -285 360 -306 480 -306 480 -285 360 -285"/><polygon fill="none" stroke="#000" points="360 -285 360 -306 480 -306 480 -285 360 -285"/><text x="415.5" y="-291.8" font-family="monospace" font-size="14" text-anchor="start">…</text></a></g></g><g id="edge3" class="edge"><title>pathsObject:endpoint1-&gt;pathItemObject:header</title><path fill="none" stroke="#000" d="M299,-422C321.92,-422 330.06,-422 348.83,-422"/><polygon fill="#000" stroke="#000" points="349 -425.5 359 -422 349 -418.5 349 -425.5"/></g><g id="edge4" class="edge"><title>pathsObject:endpoint2-&gt;pathItemObject:header</title><path fill="none" stroke="#000" d="M299,-400C323.63,-400 329.3,-416.54 348.9,-420.94"/><polygon fill="#000" stroke="#000" points="348.69 -424.44 359 -422 349.42 -417.47 348.69 -424.44"/></g><g id="edge5" class="edge"><title>pathsObject:endpoint3-&gt;pathItemObject:header</title><path fill="none" stroke="#000" d="M299,-379C305.47,-379 333.98,-405.77 349.75,-417.07"/><polygon fill="#000" stroke="#000" points="348.53 -420.38 359 -422 351.82 -414.21 348.53 -420.38"/></g><g id="node4" class="node"><title>operationObject</title><g id="a_node4"><a target="_blank" xlink:href="https://spec.openapis.org/oas/v3.1.0#operationObject" xlink:title="Click to jump to the specification of this object"><polygon fill="#939598" stroke="transparent" points="552.5 -390 552.5 -411 676.5 -411 676.5 -390 552.5 -390"/><polygon fill="none" stroke="#000" points="552.5 -390 552.5 -411 676.5 -411 676.5 -390 552.5 -390"/><text x="555.5" y="-397.8" font-family="arial" font-size="14" font-weight="bold" text-anchor="start">Operation Object</text><polygon fill="#6d6e71" stroke="transparent" points="552.5 -369 552.5 -390 676.5 -390 676.5 -369 552.5 -369"/><polygon fill="none" stroke="#000" points="552.5 -369 552.5 -390 676.5 -390 676.5 -369 552.5 -369"/><text x="585.5" y="-375.8" font-family="monospace" font-size="14" text-anchor="start">summary</text><polygon fill="#6d6e71" stroke="transparent" points="552.5 -348 552.5 -369 676.5 -369 676.5 -348 552.5 -348"/><polygon fill="none" stroke="#000" points="552.5 -348 552.5 -369 676.5 -369 676.5 -348 552.5 -348"/><text x="569" y="-354.8" font-family="monospace" font-size="14" text-anchor="start">description</text><polygon fill="#6d6e71" stroke="transparent" points="552.5 -327 552.5 -348 676.5 -348 676.5 -327 552.5 -327"/><polygon fill="none" stroke="#000" points="552.5 -327 552.5 -348 676.5 -348 676.5 -327 552.5 -327"/><text x="569" y="-333.8" font-family="monospace" font-size="14" text-anchor="start">requestBody</text><polygon fill="#6d6e71" stroke="transparent" points="552.5 -306 552.5 -327 676.5 -327 676.5 -306 552.5 -306"/><polygon fill="none" stroke="#000" points="552.5 -306 552.5 -327 676.5 -327 676.5 -306 552.5 -306"/><text x="577" y="-312.8" font-family="monospace" font-size="14" text-anchor="start">responses</text><polygon fill="#6d6e71" stroke="transparent" points="552.5 -285 552.5 -306 676.5 -306 676.5 -285 552.5 -285"/><polygon fill="none" stroke="#000" points="552.5 -285 552.5 -306 676.5 -306 676.5 -285 552.5 -285"/><text x="569" y="-291.8" font-family="monospace" font-size="14" text-anchor="start">operationId</text><polygon fill="#6d6e71" stroke="transparent" points="552.5 -264 552.5 -285 676.5 -285 676.5 -264 552.5 -264"/><polygon fill="none" stroke="#000" points="552.5 -264 552.5 -285 676.5 -285 676.5 -264 552.5 -264"/><text x="585.5" y="-270.8" font-family="monospace" font-size="14" text-anchor="start">servers</text><polygon fill="#6d6e71" stroke="transparent" points="552.5 -243 552.5 -264 676.5 -264 676.5 -243 552.5 -243"/><polygon fill="none" stroke="#000" points="552.5 -243 552.5 -264 676.5 -264 676.5 -243 552.5 -243"/><text x="610" y="-249.8" font-family="monospace" font-size="14" text-anchor="start">…</text></a></g></g><g id="edge7" class="edge"><title>pathItemObject:get-&gt;operationObject:header</title><path fill="none" stroke="#000" d="M481,-401C508.66,-401 518.01,-401 541.38,-401"/><polygon fill="#000" stroke="#000" points="541.5 -404.5 551.5 -401 541.5 -397.5 541.5 -404.5"/></g><g id="edge8" class="edge"><title>pathItemObject:put-&gt;operationObject:header</title><path fill="none" stroke="#000" d="M481,-380C509.99,-380 517.29,-396.51 541.37,-400.25"/><polygon fill="#000" stroke="#000" points="541.27 -403.75 551.5 -401 541.78 -396.77 541.27 -403.75"/></g><g id="edge9" class="edge"><title>pathItemObject:post-&gt;operationObject:header</title><path fill="none" stroke="#000" d="M481,-358C513.97,-358 514.98,-392.71 541.46,-399.76"/><polygon fill="#000" stroke="#000" points="541.15 -403.25 551.5 -401 542 -396.3 541.15 -403.25"/></g><g id="edge10" class="edge"><title>pathItemObject:delete-&gt;operationObject:header</title><path fill="none" stroke="#000" d="M481,-337C519.52,-337 511.27,-390.02 541.38,-399.54"/><polygon fill="#000" stroke="#000" points="541.1 -403.04 551.5 -401 542.1 -396.11 541.1 -403.04"/></g><g id="edge6" class="edge"><title>pathItemObject:e-&gt;serverObject:n</title><path fill="none" stroke="#000" d="M481,-316C496.34,-316 489.57,-293.49 480,-281.5 436.19,-226.61 389.5,-274.04 327,-242 317.73,-237.25 318.24,-231.81 309,-227 289.04,-216.61 261.68,-231.09 252.86,-220.94"/><polygon fill="#000" stroke="#000" points="256.13 -219.64 250 -211 249.4 -221.58 256.13 -219.64"/><text x="330.5" y="-247.8" font-family="Times New Roman,serif" font-size="14" text-anchor="middle">*</text></g><g id="edge11" class="edge"><title>operationObject:e-&gt;serverObject:n</title><path fill="none" stroke="#000" d="M677.5,-274C693.06,-274 687.3,-250.21 676.5,-239 661.44,-223.37 317.57,-232.76 258.57,-216.35"/><polygon fill="#000" stroke="#000" points="260.34 -213.33 250 -211 256.63 -219.26 260.34 -213.33"/><text x="420" y="-231.8" font-family="Times New Roman,serif" font-size="14" text-anchor="middle">*</text></g><g id="node6" class="node"><title>variablesMap</title><g id="a_node6"><a target="_blank" xlink:href="https://spec.openapis.org/oas/v3.1.0#serverVariables" xlink:title="Click to jump to the specification of this object"><polygon fill="#94d60a" stroke="transparent" points="367 -125 367 -146 473 -146 473 -125 367 -125"/><polygon fill="none" stroke="#000" points="367 -125 367 -146 473 -146 473 -125 367 -125"/><text x="370" y="-132.8" font-family="arial" font-size="14" font-weight="bold" text-anchor="start">Variables Map</text><polygon fill="#6ca437" stroke="transparent" points="367 -104 367 -125 473 -125 473 -104 367 -104"/><polygon fill="none" stroke="#000" points="367 -104 367 -125 473 -125 473 -104 367 -104"/><text x="382.5" y="-110.8" font-family="monospace" font-size="14" text-anchor="start">variable1</text><polygon fill="#6ca437" stroke="transparent" points="367 -83 367 -104 473 -104 473 -83 367 -83"/><polygon fill="none" stroke="#000" points="367 -83 367 -104 473 -104 473 -83 367 -83"/><text x="382.5" y="-89.8" font-family="monospace" font-size="14" text-anchor="start">variable2</text><polygon fill="#6ca437" stroke="transparent" points="367 -62 367 -83 473 -83 473 -62 367 -62"/><polygon fill="none" stroke="#000" points="367 -62 367 -83 473 -83 473 -62 367 -62"/><text x="382.5" y="-68.8" font-family="monospace" font-size="14" text-anchor="start">variable3</text><polygon fill="#6ca437" stroke="transparent" points="367 -41 367 -62 473 -62 473 -41 367 -41"/><polygon fill="none" stroke="#000" points="367 -41 367 -62 473 -62 473 -41 367 -41"/><text x="415.5" y="-47.8" font-family="monospace" font-size="14" text-anchor="start">…</text></a></g></g><g id="edge12" class="edge"><title>serverObject:variables-&gt;variablesMap:header</title><path fill="none" stroke="#000" d="M302,-136C326.78,-136 335.37,-136 355.97,-136"/><polygon fill="#000" stroke="#000" points="356 -139.5 366 -136 356 -132.5 356 -139.5"/></g><g id="node7" class="node"><title>serverVariableObject</title><g id="a_node7"><a target="_blank" xlink:href="https://spec.openapis.org/oas/v3.1.0#serverVariableObject" xlink:title="Click to jump to the specification of this object"><polygon fill="#94d60a" stroke="transparent" points="533.5 -104 533.5 -125 696.5 -125 696.5 -104 533.5 -104"/><polygon fill="none" stroke="#000" points="533.5 -104 533.5 -125 696.5 -125 696.5 -104 533.5 -104"/><text x="536.5" y="-111.8" font-family="arial" font-size="14" font-weight="bold" text-anchor="start">Server Variable Object</text><polygon fill="#6ca437" stroke="transparent" points="533.5 -83 533.5 -104 696.5 -104 696.5 -83 533.5 -83"/><polygon fill="none" stroke="#000" points="533.5 -83 533.5 -104 696.5 -104 696.5 -83 533.5 -83"/><text x="598" y="-89.8" font-family="monospace" font-size="14" text-anchor="start">enum</text><polygon fill="#6ca437" stroke="transparent" points="533.5 -62 533.5 -83 696.5 -83 696.5 -62 533.5 -62"/><polygon fill="none" stroke="#000" points="533.5 -62 533.5 -83 696.5 -83 696.5 -62 533.5 -62"/><text x="586" y="-68.8" font-family="monospace" font-size="14" text-anchor="start">default</text><polygon fill="#6ca437" stroke="transparent" points="533.5 -41 533.5 -62 696.5 -62 696.5 -41 533.5 -41"/><polygon fill="none" stroke="#000" points="533.5 -41 533.5 -62 696.5 -62 696.5 -41 533.5 -41"/><text x="569.5" y="-47.8" font-family="monospace" font-size="14" text-anchor="start">description</text><polygon fill="#6ca437" stroke="transparent" points="533.5 -20 533.5 -41 696.5 -41 696.5 -20 533.5 -20"/><polygon fill="none" stroke="#000" points="533.5 -20 533.5 -41 696.5 -41 696.5 -20 533.5 -20"/><text x="610.5" y="-26.8" font-family="monospace" font-size="14" text-anchor="start">…</text></a></g></g><g id="edge13" class="edge"><title>variablesMap:var1-&gt;serverVariableObject:header</title><path fill="none" stroke="#000" d="M474,-115C496.14,-115 504.14,-115 522.08,-115"/><polygon fill="#000" stroke="#000" points="522.5 -118.5 532.5 -115 522.5 -111.5 522.5 -118.5"/></g><g id="edge14" class="edge"><title>variablesMap:var2-&gt;serverVariableObject:header</title><path fill="none" stroke="#000" d="M474,-93C497.98,-93 503.45,-109.4 522.37,-113.88"/><polygon fill="#000" stroke="#000" points="522.18 -117.38 532.5 -115 522.95 -110.42 522.18 -117.38"/></g><g id="edge15" class="edge"><title>variablesMap:var3-&gt;serverVariableObject:header</title><path fill="none" stroke="#000" d="M474,-72C502.49,-72 501.12,-105.51 522.61,-113.37"/><polygon fill="#000" stroke="#000" points="522.06 -116.82 532.5 -115 523.2 -109.92 522.06 -116.82"/></g></g></svg>